<?xml version="1.0" encoding="UTF-8"?>
<svg width="18px" height="17px" viewBox="0 0 18 17" version="1.1" xmlns="http://www.w3.org/2000/svg" xmlns:xlink="http://www.w3.org/1999/xlink">
    <!-- Generator: Sketch 52.2 (67145) - http://www.bohemiancoding.com/sketch -->
    <title>tips</title>
    <desc>Created with Sketch.</desc>
    <g id="Page-1" stroke="none" stroke-width="1" fill="none" fill-rule="evenodd">
        <g id="点击热力图tips" transform="translate(-822.000000, -292.000000)">
            <g id="bu-tip-o" transform="translate(822.000000, 291.000000)">
                <rect id="矩形" fill="#333333" opacity="0" x="0" y="0.139881236" width="18" height="18"></rect>
                <path d="M6.85647543,15.4393318 C6.85647543,15.8248629 7.17791067,16.1398812 7.57129509,16.1398812 L10.4277705,16.1398812 C10.8202205,16.1398812 11.1425902,15.8248629 11.1425902,15.4393318 L11.1425902,14.7396981 L6.85647543,14.7396981 L6.85647543,15.4393318 M9,2.13988124 C6.23857625,2.13988124 4,4.33376796 4,7.04006439 C4,8.7058153 4.85030835,10.1728483 6.14165577,11.0583794 L6.14165577,12.6398812 C6.14165577,13.0254124 6.46402542,13.3404307 6.85647543,13.3404307 L11.1425902,13.3404307 C11.5350402,13.3404307 11.8564754,13.0254124 11.8564754,12.6398812 L11.8564754,11.0583794 C13.1993661,10.1438221 14.000115,8.64271441 14,7.04006439 C14,4.33376796 11.7614237,2.13988124 9,2.13988124 M11.0398056,9.91002776 L10.4277705,10.3266944 L10.4277705,11.9402475 L7.57129509,11.9402475 L7.57129509,10.3303574 L6.95925995,9.91369076 C6.00224794,9.25871912 5.43106707,8.18769055 5.42870491,7.04372739 C5.43230303,5.11204486 7.02897005,3.54684327 9,3.54281164 C10.9714558,3.54583837 12.5687225,5.11162772 12.5712951,7.04372739 C12.56877,8.18687093 11.9970725,9.25684673 11.0398056,9.91002776" id="形状" fill="#FBD337" fill-rule="nonzero"></path>
            </g>
        </g>
    </g>
</svg>