<?xml version="1.0" encoding="UTF-8"?>
<svg width="16px" height="17px" viewBox="0 0 16 17" version="1.1" xmlns="http://www.w3.org/2000/svg" xmlns:xlink="http://www.w3.org/1999/xlink">
    <!-- Generator: Sketch 52.2 (67145) - http://www.bohemiancoding.com/sketch -->
    <title>数据概览</title>
    <desc>Created with Sketch.</desc>
    <g id="Page-1" stroke="none" stroke-width="1" fill="none" fill-rule="evenodd">
        <g id="数据概览" transform="translate(-27.000000, -99.000000)" fill="#FFFFFF" fill-rule="nonzero">
            <g id="数据" transform="translate(27.000000, 99.000000)">
                <path d="M14.5742945,5.95393592 C15.254568,5.95393592 15.8065211,6.50588904 15.8065211,7.18616248 L15.8065211,15.396514 C15.8065211,16.0767875 15.254568,16.6287406 14.5742945,16.6287406 L12.9328883,16.6287406 C12.2526148,16.6287406 11.7004664,16.0767875 11.7004664,15.396514 L11.7004664,7.18459998 C11.7004664,6.50432654 12.2524195,5.95217811 12.9328883,5.95217811 L14.5742945,5.95217811 L14.5742945,5.95393592 Z M3.07917733,7.59534217 C3.75945077,7.59534217 4.31140389,8.14729529 4.31140389,8.82756873 L4.31140389,15.3949515 C4.31140389,16.075225 3.75945077,16.6273734 3.07917733,16.6273734 L1.43777108,16.6273734 C0.757497642,16.6273734 0.205544517,16.0754203 0.205544517,15.3949515 L0.205544517,8.82600623 C0.205544517,8.14573279 0.757497642,7.59358436 1.43777108,7.59358436 L3.07917733,7.59358436 L3.07917733,7.59534217 Z M8.82663827,9.23674842 C9.5069117,9.23674842 10.0588648,9.78870154 10.0588648,10.468975 L10.0588648,15.3949515 C10.0588648,16.075225 9.5069117,16.6273734 8.82663827,16.6273734 L7.18523202,16.6273734 C6.50495858,16.6273734 5.95281014,16.0754203 5.95281014,15.3949515 L5.95281014,10.468975 C5.95281014,9.78870154 6.50476327,9.23674842 7.18523202,9.23674842 L8.82663827,9.23674842 Z M13.0772242,1.24221717 L12.1078883,1.24866248 C11.7684351,1.25042029 11.4908961,0.977568731 11.4877711,0.636553106 C11.4844508,0.298857793 11.7588648,0.0213187306 12.098318,0.0179984181 L14.5692164,2.96681177e-05 C14.7283961,-0.00153283188 14.8875758,0.0586234181 15.0092555,0.180303106 C15.0694117,0.240459356 15.1147242,0.310185918 15.1440211,0.383232793 C15.1715601,0.448076543 15.1895289,0.529326543 15.1895289,0.615459356 L15.1895289,3.08987342 C15.1895289,3.42932654 14.9135523,3.70530311 14.5742945,3.70530311 C14.2350367,3.70530311 13.9588648,3.42932654 13.9588648,3.08987342 L13.9588648,2.10276404 L8.44187264,7.61956092 C8.2615992,7.79983436 7.98894295,7.85022498 7.75671639,7.74612342 L0.366286704,4.46331092 C0.0561304542,4.32522498 -0.0850804833,3.96155311 0.0530054542,3.64983436 C0.190896079,3.33967811 0.554763267,3.19846717 0.866482017,3.33655311 L7.86902108,6.44885779 L13.0772242,1.24221717 Z" id="形状"></path>
            </g>
        </g>
    </g>
</svg>