<?xml version="1.0" encoding="UTF-8"?>
<svg width="16px" height="17px" viewBox="0 0 16 17" version="1.1" xmlns="http://www.w3.org/2000/svg" xmlns:xlink="http://www.w3.org/1999/xlink">
    <!-- Generator: Sketch 52.2 (67145) - http://www.bohemiancoding.com/sketch -->
    <title>检测事件</title>
    <desc>Created with Sketch.</desc>
    <g id="Page-1" stroke="none" stroke-width="1" fill="none" fill-rule="evenodd">
        <g id="数据概览" transform="translate(-27.000000, -160.000000)" fill="#FFFFFF" fill-rule="nonzero">
            <g id="首页-管理" transform="translate(27.000000, 160.000000)">
                <path d="M5.24096386,4.52409639 C5.24096386,3.07831325 4.06626506,1.90361445 2.62048194,1.90361445 C1.1746988,1.90361445 0,3.07831325 0,4.52409639 C0,5.24698796 0.271084343,5.87951808 0.722891563,6.3313253 C0.63253011,6.87349397 0.542168672,7.41566265 0.542168672,7.95783133 C0.542168672,10.4879518 1.89759036,12.6566265 3.79518072,13.8313253 L4.33734941,11.6626506 C3.25301206,10.7590362 2.62048194,9.40361446 2.62048194,7.95783133 C2.62048194,7.68674699 2.62048194,7.41566266 2.71084337,7.14457832 C4.06626506,7.14457832 5.24096386,5.96987952 5.24096386,4.52409639 Z M7.5,3.07831325 C8.40361445,3.07831325 9.21686747,3.3493976 9.93975903,3.71084338 C9.84939758,3.98192772 9.75903614,4.3433735 9.75903614,4.61445783 C9.75903614,6.06024096 10.9337349,7.23493976 12.3795181,7.23493976 C13.8253012,7.23493976 15,6.06024096 15,4.61445783 C15,3.16867471 13.8253012,1.99397591 12.3795181,1.99397591 C12.0180723,1.99397591 11.7469879,2.08433736 11.3855422,2.1746988 C10.3012048,1.45180723 8.94578313,1 7.5,1 C6.50602409,1 5.51204819,1.18072289 4.69879519,1.63253013 L5.87349398,3.3493976 C6.41566266,3.16867471 6.95783133,3.07831325 7.5,3.07831325 Z M12.3795181,8.13855423 C12.2891566,9.94578315 11.2951807,11.4819277 9.75903614,12.2048193 C9.30722891,11.3915663 8.40361445,10.7590362 7.40963855,10.7590362 C5.96385542,10.7590362 4.78915663,11.9337349 4.78915663,13.3795181 C4.78915663,14.8253012 5.96385542,16 7.40963855,16 C8.49397589,16 9.39759036,15.3674699 9.84939759,14.373494 C12.560241,13.3795181 14.4578313,10.8493976 14.4578313,7.86746988 L14.4578313,7.41566265 C14.3674699,7.5060241 12.3795181,8.13855421 12.3795181,8.13855423 Z" id="形状"></path>
            </g>
        </g>
    </g>
</svg>