<?xml version="1.0" encoding="UTF-8"?>
<svg width="20px" height="20px" viewBox="0 0 20 20" version="1.1" xmlns="http://www.w3.org/2000/svg" xmlns:xlink="http://www.w3.org/1999/xlink">
    <!-- Generator: Sketch 52.2 (67145) - http://www.bohemiancoding.com/sketch -->
    <title>画像分析</title>
    <desc>Created with Sketch.</desc>
    <g id="Page-1" stroke="none" stroke-width="1" fill="none" fill-rule="evenodd">
        <g id="数据概览" transform="translate(-26.000000, -483.000000)" fill="#FFFFFF">
            <g id="Group" transform="translate(26.000000, 483.000000)">
                <path d="M12.037931,10.8862069 C13.1965517,11.6034483 13.9689655,12.8172414 14.0241379,14.2517241 C14.0241379,14.362069 13.9137931,14.4724138 13.8034483,14.4724138 L12.6448276,14.4724138 C12.5344828,14.4724138 12.4241379,14.362069 12.4241379,14.2517241 C12.3137931,12.9275862 11.2103448,11.8241379 9.83103448,11.8241379 C8.45172414,11.8241379 7.34827586,12.8724138 7.23793102,14.2517241 C7.23793102,14.362069 7.12758619,14.4724138 7.01724138,14.4724138 L5.85862068,14.4724138 C5.74827585,14.4724138 5.63793103,14.362069 5.63793103,14.2517241 C5.69310345,12.8172414 6.46551725,11.6034483 7.62413792,10.8862069 C7.12758619,10.3344828 6.85172413,9.67241379 6.85172415,8.90000001 C6.85172415,7.2448276 8.17586207,5.92068967 9.83103448,5.92068965 C11.4862069,5.92068963 12.8103448,7.18965516 12.8103448,8.84482759 C12.8103448,9.61724139 12.4793104,10.3344828 12.037931,10.8862069 Z M9.83103448,10.3344827 C10.6034483,10.3344827 11.2103448,9.7275862 11.2103448,8.95517241 C11.2103448,8.18275861 10.6034483,7.57586206 9.83103448,7.57586206 C9.05862068,7.57586206 8.45172414,8.18275861 8.45172414,8.95517241 C8.45172414,9.7275862 9.05862068,10.3344827 9.83103448,10.3344827 Z" id="形状" stroke="#FFFFFF" stroke-width="0.5" fill-rule="nonzero"></path>
                <path d="M14.4103448,4.26551724 C14.4103448,4.99681843 15.0031816,5.58965517 15.7344828,5.58965517 C16.4657839,5.58965517 17.0586207,4.99681843 17.0586207,4.26551724 C17.0586207,3.53421606 16.4657839,2.94137932 15.7344828,2.94137932 C15.0031816,2.94137932 14.4103448,3.53421606 14.4103448,4.26551724 Z" id="路径"></path>
                <path d="M0.0103448244,9.50689655 C0.0103448244,10.2381977 0.603181572,10.8310345 1.33448276,10.8310345 C2.06578395,10.8310345 2.6586207,10.2381977 2.6586207,9.50689655 C2.6586207,8.77559537 2.06578395,8.18275862 1.33448276,8.18275862 C0.603181572,8.18275862 0.0103448244,8.77559537 0.0103448244,9.50689655 Z" id="路径"></path>
                <path d="M17.8862069,5.75517242 C17.5551724,6.19655174 17.1137931,6.52758622 16.6172414,6.69310345 C17.1689655,7.74137931 17.4448276,8.90000001 17.4448276,10.1137931 C17.4448276,13.3137931 15.4586207,16.0724138 12.6448276,17.1758621 C12.9206897,17.6172414 13.0862069,18.1137931 13.0862069,18.6103448 L13.0862069,18.6655172 C16.5068966,17.3413793 18.9896552,14.0310345 18.9896552,10.1137931 C18.9896552,8.56896551 18.6034483,7.02413793 17.8862069,5.75517242 Z M2.43793103,11.8793103 C2.10689655,12.0448276 1.72068965,12.1551724 1.33448275,12.1551724 C1.1689655,12.1551724 1.05862069,12.1551724 0.893103456,12.1 C1.66551725,15.6310345 4.42413794,18.3896552 7.95517241,19.162069 C7.95517241,18.9965517 7.89999999,18.8862069 7.90000001,18.7206896 C7.90000001,18.3344827 8.01034484,17.9482758 8.17586207,17.6172414 C5.30689655,16.9 3.0448276,14.6931034 2.43793103,11.8793103 Z M14.2448276,2.1137931 C12.9206897,1.39655172 11.4310345,1.01034482 9.83103448,1.01034482 C5.9137931,1.01034482 2.60344828,3.43793103 1.27931035,6.9137931 L1.33448275,6.9137931 C1.88620688,6.9137931 2.38275861,7.07931035 2.76896551,7.35517241 C3.87241379,4.54137931 6.63103448,2.55517242 9.83103448,2.55517242 C11.0448276,2.55517242 12.2586207,2.83103448 13.2517241,3.38275861 C13.4724138,2.83103448 13.8034483,2.38965517 14.2448276,2.1137931 Z" id="形状" stroke="#FFFFFF" stroke-width="0.5" fill-rule="nonzero"></path>
                <path d="M9.16896552,18.6655172 C9.1689655,19.1385862 9.42134476,19.5757199 9.83103447,19.8122544 C10.2407242,20.0487888 10.7454827,20.0487888 11.1551724,19.8122544 C11.5648621,19.5757199 11.8172414,19.1385862 11.8172414,18.6655172 C11.8172414,18.1924483 11.5648621,17.7553146 11.1551724,17.5187801 C10.7454827,17.2822457 10.2407242,17.2822457 9.83103447,17.5187801 C9.42134476,17.7553146 9.1689655,18.1924483 9.16896552,18.6655172 Z" id="路径"></path>
            </g>
        </g>
    </g>
</svg>