<?xml version="1.0" encoding="UTF-8"?>
<svg width="16px" height="18px" viewBox="0 0 16 18" version="1.1" xmlns="http://www.w3.org/2000/svg" xmlns:xlink="http://www.w3.org/1999/xlink">
    <!-- Generator: Sketch 52.2 (67145) - http://www.bohemiancoding.com/sketch -->
    <title>行为分析</title>
    <desc>Created with Sketch.</desc>
    <g id="Page-1" stroke="none" stroke-width="1" fill="none" fill-rule="evenodd">
        <g id="数据概览" transform="translate(-27.000000, -423.000000)" fill="#FFFFFF" fill-rule="nonzero">
            <g id="xingwei_finish-2" transform="translate(27.000000, 423.000000)">
                <path d="M13.1764706,2.10526315 L15.058861,2.10526315 C15.5786377,2.10526315 16,2.5440436 16,3.09296546 L16,16.9070345 C16,17.4525275 15.5720387,17.8947368 15.058861,17.8947368 L0.941139016,17.8947368 C0.421362281,17.8947368 0,17.4559564 0,16.9070345 L0,3.09296546 C0,2.54747254 0.427961344,2.10526315 0.941139016,2.10526315 L2.82352941,2.10526315 L2.82352941,4.20429574 C2.82352941,4.2164026 2.82361839,4.22848357 2.82379564,4.24053793 L1.90917591,4.24296838 L1.88235294,15.7327001 L14.087776,15.7894737 L14.1176471,4.21052631 L13.176455,4.21302738 C13.1764654,4.21011822 13.1764706,4.20720766 13.1764706,4.20429574 L13.1764706,2.10526315 Z M9.4117647,2.10526315 L6.5882353,2.10526315 L6.5882353,4.20429574 C6.5882353,4.21305469 6.58818816,4.22180116 6.58809416,4.23053491 L9.41183577,4.22303127 C9.41178842,4.21679305 9.4117647,4.21054784 9.4117647,4.20429574 L9.4117647,2.10526315 Z M3.76470587,1.05242893 C3.76470587,0.471188483 4.182461,0 4.70588236,0 C5.22567977,0 5.64705883,0.467070159 5.64705883,1.05242893 L5.64705883,4.21072895 C5.64705883,4.79196942 5.2293037,5.2631579 4.70588236,5.2631579 C4.18608494,5.2631579 3.76470587,4.79608774 3.76470587,4.21072895 L3.76470587,1.05242893 Z M10.3529412,1.05242893 C10.3529412,0.471188483 10.7706963,0 11.2941176,0 C11.813915,0 12.2352941,0.467070159 12.2352941,1.05242893 L12.2352941,4.21072895 C12.2352941,4.79196942 11.817539,5.2631579 11.2941176,5.2631579 C10.7743203,5.2631579 10.3529412,4.79608774 10.3529412,4.21072895 L10.3529412,1.05242893 Z M5.07185948,9.89215197 C5.30281395,9.89215197 5.51194578,10.0039086 5.66358158,10.1845663 L7.0239278,11.8076554 L10.3366658,7.85574196 C10.4879972,7.67510556 10.697148,7.56334888 10.9280835,7.56334888 C11.3902587,7.56334888 11.7647059,8.01037559 11.7647059,8.56134961 C11.7647059,8.83684724 11.671175,9.08642723 11.5195201,9.26699979 L7.61536448,13.9245847 C7.46403308,14.1052424 7.25490127,14.216999 7.0239278,14.216999 C6.79299236,14.216999 6.58386056,14.1052424 6.43220572,13.9245847 L4.48015644,11.595888 C4.32880603,11.4152728 4.23529412,11.1656503 4.23529412,10.8901953 C4.23527509,10.3391361 4.60972228,9.89215197 5.07185948,9.89215197 Z" id="形状"></path>
            </g>
        </g>
    </g>
</svg>