<?xml version="1.0" encoding="UTF-8"?>
<svg width="19px" height="17px" viewBox="0 0 19 17" version="1.1" xmlns="http://www.w3.org/2000/svg" xmlns:xlink="http://www.w3.org/1999/xlink">
    <!-- Generator: Sketch 52.2 (67145) - http://www.bohemiancoding.com/sketch -->
    <title>账户管理</title>
    <desc>Created with Sketch.</desc>
    <g id="Page-1" stroke="none" stroke-width="1" fill="none" fill-rule="evenodd">
        <g id="数据概览" transform="translate(-28.000000, -609.000000)" fill="#FFFFFF">
            <g id="zhanghuguanli" transform="translate(28.000000, 609.000000)">
                <g id="分组-4">
                    <path d="M7.82038473,8.93758254 C6.22377497,8.93767916 4.74840538,8.08595348 3.9500726,6.70326497 C3.15173983,5.32057646 3.15173983,3.61700608 3.9500726,2.23431756 C4.74840538,0.851629054 6.22377497,-9.66194208e-05 7.82038473,-1.77635684e-15 C10.2883244,0.000149348267 12.2889056,2.00085161 12.2889056,4.46879127 C12.2889056,6.93673093 10.2883244,8.93743319 7.82038473,8.93758254 Z M7.82038473,6.70318691 C9.05440737,6.70318691 10.0547804,5.70281391 10.0547804,4.46879127 C10.0547804,3.23476863 9.05440737,2.23439563 7.82038473,2.23439563 C6.58636209,2.23439563 5.58598909,3.23476863 5.58598909,4.46879127 C5.58598909,5.70281391 6.58636209,6.70318691 7.82038473,6.70318691 Z" id="形状" fill-rule="nonzero"></path>
                    <path d="M12.5539519,9.41462601 L11.1999081,11.1932049 C9.51024162,9.90933714 7.23901594,9.69376334 5.33798059,10.636819 C3.43694524,11.5798747 2.23444968,13.5186739 2.23439563,15.6407694 L-7.1208837e-08,15.6407694 C-0.00039988928,12.6691045 1.68347957,9.95397999 4.34571547,8.63364176 C7.00795136,7.31330353 10.1884819,7.6159196 12.5539519,9.41462601 Z" id="路径"></path>
                    <path d="M17.6986478,13.3661547 C17.9452107,12.6400196 17.9349565,11.8512392 17.6696007,11.1317591 L18.9923629,11.1317591 L18.9923629,13.3661547 L17.6986478,13.3661547 Z M17.0573763,10.0949995 C16.5559578,9.51477921 15.870507,9.12433253 15.1156865,8.98897364 L15.790474,7.82038473 L17.7254606,8.93758254 L17.0573763,10.0949995 Z M13.9314568,8.98897364 C13.1766363,9.12433254 12.4911854,9.51477921 11.989767,10.0949995 L11.3216827,8.93758254 L13.2566693,7.82038473 L13.9314568,8.99009085 L13.9314568,8.98897364 Z M11.3775426,11.1317591 C11.1120057,11.8512057 11.1017508,12.6400484 11.3484954,13.3661547 L10.0547804,13.3661547 L10.0547804,11.1317591 L11.3775426,11.1317591 Z M11.961837,14.4509538 C12.4478181,15.0251935 13.1226056,15.4340879 13.8901205,15.5804408 L13.2566693,16.677529 L11.3216827,15.5603312 L11.961837,14.4509538 Z M15.1570228,15.5804408 C15.9101348,15.4357992 16.5908038,15.0370991 17.0853062,14.4509538 L17.7254606,15.5603312 L15.790474,16.677529 L15.1570228,15.5804408 Z" id="形状" fill-rule="nonzero"></path>
                    <path d="M14.5235716,15.6407694 C12.6725377,15.6407694 11.1719782,14.1402099 11.1719782,12.289176 C11.1719782,10.438142 12.6725377,8.93758254 14.5235716,8.93758254 C16.3746056,8.93758254 17.8751651,10.438142 17.8751651,12.289176 C17.8751651,14.1402099 16.3746056,15.6407694 14.5235716,15.6407694 Z M14.5235716,13.4063738 C14.9227402,13.4064221 15.2916078,13.193496 15.491206,12.8478139 C15.6908042,12.5021319 15.6908042,12.0762201 15.491206,11.7305381 C15.2916078,11.384856 14.9227402,11.1719299 14.5235716,11.1719782 C13.9066131,11.1720529 13.406509,11.6722175 13.406509,12.289176 C13.406509,12.9061345 13.9066131,13.4062991 14.5235716,13.4063738 Z" id="形状" fill-rule="nonzero"></path>
                </g>
            </g>
        </g>
    </g>
</svg>