<?xml version="1.0" encoding="UTF-8"?>
<svg width="19px" height="17px" viewBox="0 0 19 17" version="1.1" xmlns="http://www.w3.org/2000/svg" xmlns:xlink="http://www.w3.org/1999/xlink">
    <!-- Generator: Sketch 52.2 (67145) - http://www.bohemiancoding.com/sketch -->
    <title>转化分析</title>
    <desc>Created with Sketch.</desc>
    <g id="Page-1" stroke="none" stroke-width="1" fill="none" fill-rule="evenodd">
        <g id="数据概览" transform="translate(-27.000000, -547.000000)" fill="#FFFFFF" fill-rule="nonzero">
            <g id="zhuanhuafenxiC" transform="translate(27.000000, 547.000000)">
                <path d="M16.9987588,0.0121159167 C16.9381792,0.0040386389 16.8775996,0 16.8150007,0 L1.62971844,0 C0.826029295,0 0.175808432,0.650220864 0.175808432,1.45391001 C0.171769793,1.7749818 0.272735765,2.09605359 0.480725669,2.36058444 C0.517073419,2.40904811 0.557459808,2.45549245 0.601884836,2.49789816 C0.609962114,2.50597544 0.616020072,2.5120334 0.62409735,2.51809136 C0.636213267,2.53020727 0.646309864,2.54232319 0.658425781,2.55443911 L6.51445219,8.41046552 L6.51647151,8.41248484 L6.51647151,12.8287365 C6.51647151,12.8893161 6.52051015,12.9478763 6.52656811,13.0044173 C6.56089654,13.2830834 6.67195911,13.5375176 6.84158194,13.7455075 C6.90418085,13.8222416 6.97485703,13.8949371 7.05361049,13.9575361 L9.40409833,16.3100432 C9.4323688,16.340333 9.46063927,16.3706228 9.49294838,16.3988933 C9.75142127,16.637173 10.0967249,16.782564 10.476357,16.782564 C11.2800461,16.782564 11.930267,16.1323431 11.930267,15.328654 C11.930267,15.328654 11.930267,15.0459492 11.930267,15.328654 L11.930267,8.41248484 L17.7862934,2.55645843 C17.7984093,2.54434251 17.8105252,2.53222659 17.8206218,2.52011068 C17.8286991,2.51405272 17.834757,2.50597544 17.8428343,2.49991748 C17.8872593,2.45549245 17.9276457,2.40904811 17.9639935,2.36260376 C18.1699641,2.09605359 18.27093,1.7749818 18.2689107,1.45592932 L18.27093,1.45592932 C18.2689107,0.712819767 17.7156172,0.102985292 16.9987588,0.0121159167 Z M9.82815541,11.3687685 C9.82815541,11.7019562 9.55554729,11.9745644 9.22235958,11.9745644 C8.88917187,11.9745644 8.61656374,11.7019562 8.61656374,11.3687685 L8.61656374,9.34944906 C8.61656374,9.01626135 8.88917187,8.74365323 9.22235958,8.74365323 C9.55554729,8.74365323 9.82815541,9.01626135 9.82815541,9.34944906 L9.82815541,11.3687685 Z M12.6592413,4.61818359 C11.4698621,5.80756274 10.1310533,7.14839086 10.1310533,7.14839086 C10.0300874,7.24935683 9.92912139,7.43109558 9.85440657,7.56638999 C9.7332474,7.78851513 9.49294838,7.93592545 9.22235958,7.93592545 C8.93157758,7.93592545 8.67916264,7.76428329 8.56406144,7.51792632 C8.54790688,7.48561721 8.45501819,7.28974322 8.31366582,7.14839086 C8.31366582,7.14839086 8.23087373,7.06357944 7.72806318,6.5607689 L5.78547787,4.61818359 C5.32507303,4.15777875 5.65220279,3.37226349 6.30040433,3.37226349 L12.1422955,3.37226349 C12.7925164,3.37226349 13.1196461,4.15777875 12.6592413,4.61818359 Z" id="形状"></path>
            </g>
        </g>
    </g>
</svg>